<svg width="20" height="21" viewBox="0 0 20 21" fill="none" xmlns="http://www.w3.org/2000/svg">
<path fill-rule="evenodd" clip-rule="evenodd" d="M9.8181 7.28592C8.1356 7.28592 6.76726 8.65508 6.76726 10.3376C6.76726 12.0201 8.1356 13.3884 9.8181 13.3884C11.5006 13.3884 12.8698 12.0201 12.8698 10.3376C12.8698 8.65508 11.5006 7.28592 9.8181 7.28592Z" fill="black"/>
<path fill-rule="evenodd" clip-rule="evenodd" d="M18.28 9.97917C16.5017 6.23667 13.3392 4.00167 9.82083 4H9.8175C6.29833 4.00167 3.13583 6.23667 1.3575 9.97917L1 10.7317L2.50583 11.4475L2.86333 10.6942C4.35833 7.54667 6.95833 5.6675 9.81917 5.66667C12.6792 5.6675 15.2792 7.54667 16.7742 10.6942L17.1325 11.4475L18.6375 10.7317L18.28 9.97917Z" fill="black"/>
</svg>
