<svg width="66" height="49" viewBox="0 0 66 49" fill="none" xmlns="http://www.w3.org/2000/svg">
<g filter="url(#filter0_dd_15_1009)">
<rect x="9.7207" y="5" width="46.6143" height="30.0304" rx="5.37857" fill="white"/>
<rect x="9.60865" y="4.88795" width="46.8384" height="30.2545" rx="5.49062" stroke="#D6DCE5" stroke-width="0.224107"/>
<path d="M32.0151 23.6143H30.9667V15.4561H33.7461C34.4506 15.4561 35.0512 15.6909 35.5427 16.1605C36.0451 16.6301 36.2963 17.2035 36.2963 17.8806C36.2963 18.5741 36.0451 19.1475 35.5427 19.6116C35.0567 20.0758 34.456 20.3051 33.7461 20.3051H32.0151V23.6143ZM32.0151 16.4608V19.3058H33.768C34.183 19.3058 34.5325 19.1639 34.8055 18.8854C35.084 18.6069 35.226 18.2683 35.226 17.8861C35.226 17.5093 35.084 17.1762 34.8055 16.8977C34.5325 16.6083 34.1885 16.4663 33.768 16.4663H32.0151V16.4608Z" fill="#3C4043"/>
<path d="M39.0374 17.8478C39.8128 17.8478 40.4244 18.0553 40.8722 18.4703C41.32 18.8854 41.5438 19.4533 41.5438 20.1741V23.6143H40.5445V22.8389H40.5009C40.0695 23.4778 39.4906 23.7945 38.7698 23.7945C38.1528 23.7945 37.6395 23.6143 37.2245 23.2484C36.8095 22.8826 36.602 22.4293 36.602 21.8833C36.602 21.3044 36.8204 20.8457 37.2572 20.5072C37.6941 20.1632 38.2784 19.9939 39.0046 19.9939C39.6272 19.9939 40.1405 20.1085 40.5391 20.3379V20.0976C40.5391 19.7318 40.3971 19.426 40.1077 19.1693C39.8183 18.9127 39.4797 18.7871 39.092 18.7871C38.5077 18.7871 38.0436 19.0328 37.705 19.5297L36.7822 18.9509C37.29 18.2137 38.0436 17.8478 39.0374 17.8478ZM37.6832 21.8996C37.6832 22.1727 37.7978 22.402 38.0326 22.5822C38.262 22.7624 38.535 22.8553 38.8463 22.8553C39.2886 22.8553 39.6818 22.6914 40.0258 22.3638C40.3698 22.0362 40.5445 21.6539 40.5445 21.2116C40.2169 20.955 39.7637 20.8239 39.1794 20.8239C38.7535 20.8239 38.3985 20.9276 38.1146 21.1297C37.8251 21.3427 37.6832 21.5993 37.6832 21.8996Z" fill="#3C4043"/>
<path d="M47.2448 18.0281L43.75 26.0662H42.6688L43.9684 23.2539L41.664 18.0281H42.8053L44.4653 22.0362H44.4872L46.1035 18.0281H47.2448Z" fill="#3C4043"/>
<path d="M27.8448 19.6444C27.8448 19.3026 27.8142 18.9755 27.7574 18.6609H23.3627V20.4629L25.8937 20.4635C25.791 21.0631 25.4606 21.5742 24.9544 21.9149V23.0841H26.461C27.3407 22.2699 27.8448 21.0664 27.8448 19.6444Z" fill="#4285F4"/>
<path d="M24.955 21.915C24.5356 22.1979 23.9955 22.3633 23.3637 22.3633C22.1433 22.3633 21.1079 21.5409 20.7372 20.4324H19.1831V21.6381C19.953 23.166 21.5355 24.2145 23.3637 24.2145C24.6273 24.2145 25.6889 23.7989 26.4616 23.0836L24.955 21.915Z" fill="#34A853"/>
<path d="M20.5908 19.5379C20.5908 19.2266 20.6426 18.9258 20.7371 18.6429V17.4372H19.183C18.8647 18.069 18.6855 18.7821 18.6855 19.5379C18.6855 20.2937 18.8652 21.0068 19.183 21.6386L20.7371 20.4329C20.6426 20.15 20.5908 19.8492 20.5908 19.5379Z" fill="#FABB05"/>
<path d="M23.3637 16.712C24.0534 16.712 24.671 16.9495 25.1586 17.4137L26.4938 16.0797C25.6829 15.3245 24.6257 14.8608 23.3637 14.8608C21.5361 14.8608 19.953 15.9093 19.183 17.4372L20.7371 18.6429C21.1079 17.5344 22.1433 16.712 23.3637 16.712Z" fill="#E94235"/>
</g>
<defs>
<filter id="filter0_dd_15_1009" x="0.531808" y="0.293736" width="64.9911" height="48.4071" filterUnits="userSpaceOnUse" color-interpolation-filters="sRGB">
<feFlood flood-opacity="0" result="BackgroundImageFix"/>
<feColorMatrix in="SourceAlpha" type="matrix" values="0 0 0 0 0 0 0 0 0 0 0 0 0 0 0 0 0 0 127 0" result="hardAlpha"/>
<feOffset dy="0.448214"/>
<feGaussianBlur stdDeviation="2.24107"/>
<feColorMatrix type="matrix" values="0 0 0 0 0.717647 0 0 0 0 0.717647 0 0 0 0 0.717647 0 0 0 0.08 0"/>
<feBlend mode="normal" in2="BackgroundImageFix" result="effect1_dropShadow_15_1009"/>
<feColorMatrix in="SourceAlpha" type="matrix" values="0 0 0 0 0 0 0 0 0 0 0 0 0 0 0 0 0 0 127 0" result="hardAlpha"/>
<feOffset dy="4.48214"/>
<feGaussianBlur stdDeviation="4.48214"/>
<feColorMatrix type="matrix" values="0 0 0 0 0.717647 0 0 0 0 0.717647 0 0 0 0 0.717647 0 0 0 0.08 0"/>
<feBlend mode="normal" in2="effect1_dropShadow_15_1009" result="effect2_dropShadow_15_1009"/>
<feBlend mode="normal" in="SourceGraphic" in2="effect2_dropShadow_15_1009" result="shape"/>
</filter>
</defs>
</svg>
