<svg width="66" height="49" viewBox="0 0 66 49" fill="none" xmlns="http://www.w3.org/2000/svg">
<g filter="url(#filter0_dd_15_1007)">
<rect x="10.1074" y="5" width="46.6143" height="30.0304" rx="5.37857" fill="white"/>
<rect x="9.99537" y="4.88795" width="46.8384" height="30.2545" rx="5.49062" stroke="#D6DCE5" stroke-width="0.224107"/>
<path d="M25.1837 16.0817C25.4947 15.6927 25.7057 15.1704 25.6501 14.6367C25.1948 14.6594 24.6393 14.9371 24.3176 15.3264C24.0289 15.6597 23.7732 16.2039 23.8399 16.7152C24.3509 16.7595 24.8615 16.4598 25.1837 16.0817Z" fill="#000008"/>
<path d="M25.6443 16.8151C24.9021 16.7709 24.2711 17.2363 23.9167 17.2363C23.5621 17.2363 23.0194 16.8373 22.4324 16.8481C21.6683 16.8593 20.9594 17.2913 20.5717 17.9784C19.7743 19.3528 20.3613 21.3916 21.1367 22.511C21.5133 23.0648 21.9672 23.6746 22.5652 23.6527C23.1302 23.6305 23.3517 23.2868 24.0385 23.2868C24.7248 23.2868 24.9243 23.6527 25.5225 23.6416C26.1427 23.6305 26.5305 23.0875 26.9071 22.5332C27.3391 21.9019 27.516 21.2923 27.5271 21.2588C27.516 21.2477 26.331 20.7932 26.32 19.4302C26.3089 18.2889 27.2503 17.746 27.2946 17.7123C26.763 16.926 25.9323 16.8373 25.6443 16.8151Z" fill="#000008"/>
<path d="M32.1063 15.2705C33.7194 15.2705 34.8426 16.3824 34.8426 18.0013C34.8426 19.6259 33.6963 20.7435 32.0659 20.7435H30.2799V23.5837H28.9896V15.2705L32.1063 15.2705ZM30.2799 19.6604H31.7605C32.884 19.6604 33.5234 19.0556 33.5234 18.007C33.5234 16.9586 32.884 16.3594 31.7663 16.3594H30.2799V19.6604Z" fill="#000008"/>
<path d="M35.1797 21.8612C35.1797 20.8011 35.9921 20.1501 37.4324 20.0695L39.0915 19.9716V19.505C39.0915 18.8309 38.6363 18.4276 37.876 18.4276C37.1557 18.4276 36.7063 18.7732 36.597 19.3148H35.4218C35.4909 18.2201 36.4241 17.4136 37.922 17.4136C39.3911 17.4136 40.3301 18.1914 40.3301 19.4069V23.5837H39.1375V22.5871H39.1088C38.7574 23.2611 37.9911 23.6874 37.1962 23.6874C36.0094 23.6874 35.1797 22.95 35.1797 21.8612ZM39.0915 21.3139V20.8358L37.5993 20.9279C36.8561 20.9798 36.4357 21.3081 36.4357 21.8266C36.4357 22.3566 36.8735 22.7023 37.5418 22.7023C38.4116 22.7023 39.0915 22.1031 39.0915 21.3139Z" fill="#000008"/>
<path d="M41.4559 25.8133V24.8051C41.548 24.8281 41.7553 24.8281 41.8591 24.8281C42.4352 24.8281 42.7463 24.5861 42.9363 23.964C42.9363 23.9524 43.0459 23.5953 43.0459 23.5895L40.8568 17.5231H42.2047L43.7373 22.4546H43.7602L45.2928 17.5231H46.6063L44.3362 23.9005C43.818 25.3697 43.2188 25.8421 41.9629 25.8421C41.8591 25.8421 41.548 25.8305 41.4559 25.8133Z" fill="#000008"/>
</g>
<defs>
<filter id="filter0_dd_15_1007" x="0.918527" y="0.293736" width="64.9911" height="48.4071" filterUnits="userSpaceOnUse" color-interpolation-filters="sRGB">
<feFlood flood-opacity="0" result="BackgroundImageFix"/>
<feColorMatrix in="SourceAlpha" type="matrix" values="0 0 0 0 0 0 0 0 0 0 0 0 0 0 0 0 0 0 127 0" result="hardAlpha"/>
<feOffset dy="0.448214"/>
<feGaussianBlur stdDeviation="2.24107"/>
<feColorMatrix type="matrix" values="0 0 0 0 0.717647 0 0 0 0 0.717647 0 0 0 0 0.717647 0 0 0 0.08 0"/>
<feBlend mode="normal" in2="BackgroundImageFix" result="effect1_dropShadow_15_1007"/>
<feColorMatrix in="SourceAlpha" type="matrix" values="0 0 0 0 0 0 0 0 0 0 0 0 0 0 0 0 0 0 127 0" result="hardAlpha"/>
<feOffset dy="4.48214"/>
<feGaussianBlur stdDeviation="4.48214"/>
<feColorMatrix type="matrix" values="0 0 0 0 0.717647 0 0 0 0 0.717647 0 0 0 0 0.717647 0 0 0 0.08 0"/>
<feBlend mode="normal" in2="effect1_dropShadow_15_1007" result="effect2_dropShadow_15_1007"/>
<feBlend mode="normal" in="SourceGraphic" in2="effect2_dropShadow_15_1007" result="shape"/>
</filter>
</defs>
</svg>
