<svg width="29" height="28" viewBox="0 0 29 28" fill="none" xmlns="http://www.w3.org/2000/svg">
<circle cx="14.9297" cy="14" r="14" fill="white"/>
<circle cx="14.9297" cy="14" r="13.5" stroke="black" stroke-opacity="0.2"/>
<path d="M14.9304 8.44721C16.7392 8.44721 16.9533 8.45398 17.6679 8.48656C18.0975 8.49182 18.523 8.5707 18.9259 8.71979C19.2181 8.83248 19.4835 9.00511 19.705 9.22656C19.9264 9.44802 20.099 9.71339 20.2117 10.0056C20.3608 10.4085 20.4397 10.8341 20.445 11.2637C20.4772 11.9782 20.4843 12.1924 20.4843 14.0011C20.4843 15.8098 20.4775 16.024 20.445 16.7385C20.4397 17.1681 20.3608 17.5936 20.2117 17.9966C20.099 18.2888 19.9264 18.5541 19.705 18.7756C19.4835 18.997 19.2181 19.1697 18.9259 19.2824C18.523 19.4315 18.0975 19.5103 17.6679 19.5156C16.9537 19.5479 16.7395 19.5549 14.9304 19.5549C13.1214 19.5549 12.9072 19.5482 12.193 19.5156C11.7634 19.5103 11.3379 19.4315 10.935 19.2824C10.6428 19.1697 10.3774 18.997 10.1559 18.7756C9.93447 18.5541 9.76184 18.2888 9.64915 17.9966C9.50007 17.5936 9.42118 17.1681 9.41593 16.7385C9.38367 16.024 9.37657 15.8098 9.37657 14.0011C9.37657 12.1924 9.38335 11.9782 9.41593 11.2637C9.42118 10.8341 9.50007 10.4085 9.64915 10.0056C9.76184 9.71339 9.93447 9.44802 10.1559 9.22656C10.3774 9.00511 10.6428 8.83248 10.935 8.71979C11.3379 8.5707 11.7634 8.49182 12.193 8.48656C12.9075 8.4543 13.1217 8.44721 14.9304 8.44721ZM14.9304 7.22656C13.0917 7.22656 12.8601 7.2343 12.1375 7.26721C11.5753 7.27839 11.019 7.38485 10.4924 7.58205C10.0406 7.75226 9.63141 8.019 9.29335 8.36366C8.94838 8.70184 8.68141 9.11127 8.51109 9.56334C8.31389 10.09 8.20743 10.6463 8.19625 11.2085C8.16399 11.9304 8.15625 12.162 8.15625 14.0008C8.15625 15.8395 8.16399 16.0711 8.1969 16.7937C8.20808 17.3559 8.31453 17.9122 8.51173 18.4388C8.68187 18.8908 8.94861 19.3002 9.29335 19.6385C9.6316 19.9832 10.041 20.25 10.493 20.4201C11.0197 20.6173 11.5759 20.7238 12.1382 20.7349C12.8608 20.7672 13.0914 20.7756 14.9311 20.7756C16.7708 20.7756 17.0014 20.7679 17.724 20.7349C18.2862 20.7238 18.8425 20.6173 19.3692 20.4201C19.819 20.2457 20.2275 19.9794 20.5686 19.6381C20.9096 19.2968 21.1757 18.8882 21.3498 18.4382C21.547 17.9115 21.6535 17.3553 21.6646 16.793C21.6969 16.0711 21.7046 15.8395 21.7046 14.0008C21.7046 12.162 21.6969 11.9304 21.664 11.2079C21.6528 10.6456 21.5464 10.0893 21.3492 9.56269C21.179 9.11068 20.9123 8.70126 20.5675 8.36301C20.2293 8.01828 19.8199 7.75153 19.3679 7.5814C18.8412 7.3842 18.2849 7.27775 17.7227 7.26656C17.0008 7.2343 16.7692 7.22656 14.9304 7.22656Z" fill="black"/>
<path d="M14.9318 10.5234C14.2438 10.5234 13.5712 10.7275 12.9992 11.1097C12.4271 11.492 11.9812 12.0353 11.7179 12.6709C11.4546 13.3066 11.3857 14.006 11.52 14.6808C11.6542 15.3556 11.9855 15.9755 12.472 16.462C12.9585 16.9485 13.5784 17.2798 14.2532 17.414C14.928 17.5482 15.6274 17.4794 16.2631 17.2161C16.8987 16.9528 17.442 16.5069 17.8243 15.9348C18.2065 15.3627 18.4105 14.6902 18.4105 14.0021C18.4105 13.0795 18.044 12.1947 17.3917 11.5423C16.7393 10.8899 15.8544 10.5234 14.9318 10.5234ZM14.9318 16.2602C14.4852 16.2602 14.0487 16.1278 13.6773 15.8797C13.306 15.6315 13.0166 15.2789 12.8457 14.8663C12.6747 14.4537 12.63 13.9996 12.7172 13.5616C12.8043 13.1236 13.0193 12.7213 13.3351 12.4055C13.6509 12.0897 14.0533 11.8746 14.4913 11.7875C14.9293 11.7003 15.3834 11.7451 15.796 11.916C16.2086 12.0869 16.5612 12.3763 16.8093 12.7476C17.0575 13.119 17.1899 13.5555 17.1899 14.0021C17.1899 14.601 16.952 15.1754 16.5285 15.5988C16.1051 16.0223 15.5307 16.2602 14.9318 16.2602Z" fill="black"/>
<path d="M18.5473 11.1981C18.9962 11.1981 19.3602 10.8341 19.3602 10.3852C19.3602 9.93621 18.9962 9.57227 18.5473 9.57227C18.0983 9.57227 17.7344 9.93621 17.7344 10.3852C17.7344 10.8341 18.0983 11.1981 18.5473 11.1981Z" fill="black"/>
</svg>
