<svg width="66" height="49" viewBox="0 0 66 49" fill="none" xmlns="http://www.w3.org/2000/svg">
<g filter="url(#filter0_dd_15_1005)">
<rect x="9.49219" y="5" width="46.6143" height="30.0304" rx="5.37857" fill="white"/>
<rect x="9.38013" y="4.88795" width="46.8384" height="30.2545" rx="5.49062" stroke="#D6DCE5" stroke-width="0.224107"/>
<path fill-rule="evenodd" clip-rule="evenodd" d="M19.6892 15.646H17.0017C16.8178 15.646 16.6614 15.7796 16.6327 15.9611L15.5458 22.8518C15.5242 22.9879 15.6295 23.1104 15.7674 23.1104H17.0505C17.2344 23.1104 17.3908 22.9768 17.4195 22.7949L17.7126 20.9364C17.7409 20.7544 17.8977 20.6209 18.0812 20.6209H18.932C20.7023 20.6209 21.724 19.7643 21.991 18.0669C22.1112 17.3243 21.9961 16.7408 21.6482 16.332C21.2663 15.8835 20.5887 15.646 19.6892 15.646ZM19.9993 18.1627C19.8524 19.127 19.1155 19.127 18.4031 19.127H17.9975L18.282 17.3261C18.2989 17.2174 18.3932 17.1372 18.5033 17.1372H18.6892C19.1745 17.1372 19.6323 17.1372 19.8689 17.4138C20.0099 17.5789 20.0531 17.824 19.9993 18.1627ZM27.7228 18.1318H26.4358C26.3262 18.1318 26.2314 18.212 26.2145 18.3209L26.1576 18.6808L26.0676 18.5504C25.789 18.146 25.1678 18.0109 24.5477 18.0109C23.1254 18.0109 21.9108 19.0879 21.6742 20.5988C21.5512 21.3523 21.726 22.0729 22.1535 22.5755C22.5458 23.0375 23.107 23.2301 23.7746 23.2301C24.9205 23.2301 25.556 22.4933 25.556 22.4933L25.4986 22.8509C25.4769 22.9877 25.5822 23.1102 25.7193 23.1102H26.8787C27.0631 23.1102 27.2185 22.9766 27.2476 22.7948L27.9432 18.3904C27.9652 18.2549 27.8603 18.1318 27.7228 18.1318ZM25.9288 20.6364C25.8046 21.3715 25.2211 21.865 24.4769 21.865C24.1032 21.865 23.8044 21.7452 23.6127 21.5181C23.4225 21.2926 23.3501 20.9715 23.4107 20.614C23.5267 19.8851 24.1201 19.3756 24.853 19.3756C25.2183 19.3756 25.5155 19.4968 25.7112 19.726C25.9072 19.9574 25.985 20.2804 25.9288 20.6364ZM33.2837 18.1317H34.5771C34.7582 18.1317 34.8639 18.3348 34.7609 18.4833L30.4595 24.6914C30.3899 24.792 30.2751 24.8518 30.1526 24.8518H28.8609C28.679 24.8518 28.5728 24.6471 28.6781 24.4982L30.0175 22.6078L28.593 18.4279C28.5437 18.2826 28.651 18.1317 28.8056 18.1317H30.0764C30.2415 18.1317 30.3872 18.24 30.4348 18.398L31.1908 20.9226L32.9746 18.2955C33.0444 18.1929 33.1604 18.1317 33.2837 18.1317Z" fill="#253B80"/>
<path fill-rule="evenodd" clip-rule="evenodd" d="M47.3063 22.8512L48.4092 15.8345C48.4262 15.7256 48.5205 15.6454 48.6302 15.645H49.8719C50.009 15.645 50.1143 15.7679 50.0927 15.9039L49.005 22.7943C48.9766 22.9762 48.8202 23.1098 48.636 23.1098H47.5271C47.3899 23.1098 47.2847 22.9872 47.3063 22.8512ZM38.8594 15.6454H36.1714C35.9879 15.6454 35.8315 15.779 35.8028 15.9605L34.7158 22.8512C34.6942 22.9872 34.7995 23.1098 34.9368 23.1098H36.316C36.4442 23.1098 36.5538 23.0163 36.5738 22.8891L36.8822 20.9358C36.9106 20.7538 37.0674 20.6203 37.2509 20.6203H38.1012C39.8719 20.6203 40.8934 19.7637 41.1605 18.0663C41.2811 17.3237 41.1653 16.7402 40.8176 16.3314C40.4359 15.8829 39.7588 15.6454 38.8594 15.6454ZM39.1694 18.1621C39.0228 19.1264 38.286 19.1264 37.5731 19.1264H37.1679L37.4529 17.3255C37.4698 17.2168 37.5633 17.1366 37.6737 17.1366H37.8595C38.3445 17.1366 38.8028 17.1366 39.0392 17.4132C39.1803 17.5783 39.2232 17.8234 39.1694 18.1621ZM46.8922 18.1312H45.6061C45.4956 18.1312 45.4017 18.2114 45.3852 18.3203L45.3283 18.6802L45.2379 18.5498C44.9593 18.1454 44.3384 18.0103 43.7183 18.0103C42.296 18.0103 41.0818 19.0873 40.8452 20.5981C40.7226 21.3517 40.8967 22.0723 41.3242 22.5748C41.7172 23.0369 42.2777 23.2294 42.9453 23.2294C44.0911 23.2294 44.7265 22.4927 44.7265 22.4927L44.6692 22.8503C44.6476 22.9871 44.7529 23.1096 44.8909 23.1096H46.0497C46.2332 23.1096 46.3896 22.976 46.4183 22.7941L47.1143 18.3898C47.1355 18.2543 47.0302 18.1312 46.8922 18.1312ZM45.0984 20.6358C44.9749 21.3709 44.3906 21.8644 43.6463 21.8644C43.2733 21.8644 42.974 21.7446 42.7821 21.5175C42.5919 21.292 42.5204 20.9709 42.5803 20.6134C42.6968 19.8845 43.2895 19.375 44.0224 19.375C44.3879 19.375 44.6849 19.4962 44.8807 19.7253C45.0775 19.9568 45.1553 20.2798 45.0984 20.6358Z" fill="#179BD7"/>
</g>
<defs>
<filter id="filter0_dd_15_1005" x="0.303292" y="0.293736" width="64.9911" height="48.4071" filterUnits="userSpaceOnUse" color-interpolation-filters="sRGB">
<feFlood flood-opacity="0" result="BackgroundImageFix"/>
<feColorMatrix in="SourceAlpha" type="matrix" values="0 0 0 0 0 0 0 0 0 0 0 0 0 0 0 0 0 0 127 0" result="hardAlpha"/>
<feOffset dy="0.448214"/>
<feGaussianBlur stdDeviation="2.24107"/>
<feColorMatrix type="matrix" values="0 0 0 0 0.717647 0 0 0 0 0.717647 0 0 0 0 0.717647 0 0 0 0.08 0"/>
<feBlend mode="normal" in2="BackgroundImageFix" result="effect1_dropShadow_15_1005"/>
<feColorMatrix in="SourceAlpha" type="matrix" values="0 0 0 0 0 0 0 0 0 0 0 0 0 0 0 0 0 0 127 0" result="hardAlpha"/>
<feOffset dy="4.48214"/>
<feGaussianBlur stdDeviation="4.48214"/>
<feColorMatrix type="matrix" values="0 0 0 0 0.717647 0 0 0 0 0.717647 0 0 0 0 0.717647 0 0 0 0.08 0"/>
<feBlend mode="normal" in2="effect1_dropShadow_15_1005" result="effect2_dropShadow_15_1005"/>
<feBlend mode="normal" in="SourceGraphic" in2="effect2_dropShadow_15_1005" result="shape"/>
</filter>
</defs>
</svg>
