<svg width="29" height="28" viewBox="0 0 29 28" fill="none" xmlns="http://www.w3.org/2000/svg">
<circle cx="14.9297" cy="14" r="14" fill="white"/>
<circle cx="14.9297" cy="14" r="13.5" stroke="black" stroke-opacity="0.2"/>
<path d="M21.1368 10.9831C20.7178 11.1693 20.2755 11.2857 19.8099 11.3556C20.2755 11.0762 20.648 10.6339 20.8109 10.0985C20.3686 10.3546 19.8798 10.5408 19.3443 10.6572C18.9253 10.2149 18.3201 9.93555 17.6682 9.93555C16.4112 9.93555 15.3869 10.9598 15.3869 12.2169C15.3869 12.4031 15.4102 12.5661 15.4567 12.729C13.5711 12.6359 11.8718 11.728 10.7311 10.3313C10.5449 10.6805 10.4285 11.0529 10.4285 11.472C10.4285 12.2634 10.8242 12.9618 11.4527 13.3808C11.0803 13.3576 10.7311 13.2644 10.4052 13.1015V13.1248C10.4052 14.2422 11.1967 15.1733 12.2442 15.3828C12.058 15.4294 11.8485 15.4527 11.639 15.4527C11.4993 15.4527 11.3364 15.4294 11.1967 15.4061C11.4993 16.314 12.3373 16.9891 13.3383 16.9891C12.5469 17.5943 11.5691 17.9668 10.4983 17.9668C10.3121 17.9668 10.1258 17.9668 9.96289 17.9435C10.9872 18.5953 12.1744 18.9678 13.478 18.9678C17.6915 18.9678 19.9961 15.476 19.9961 12.4497C19.9961 12.3566 19.9961 12.2402 19.9961 12.1471C20.4384 11.8444 20.8342 11.4487 21.1368 10.9831Z" fill="black"/>
</svg>
