<svg width="20" height="21" viewBox="0 0 20 21" fill="none" xmlns="http://www.w3.org/2000/svg">
<g clip-path="url(#clip0_102_239)">
<path fill-rule="evenodd" clip-rule="evenodd" d="M18.8191 6.81607L17.3133 6.10107L16.9558 6.85357C15.8416 9.19857 14.1133 10.8369 12.1216 11.5219L11.9541 11.5702C11.3233 11.7686 10.67 11.8811 9.99997 11.8811C7.13997 11.8802 4.53997 10.0011 3.04497 6.85357L2.68747 6.10107L1.18164 6.81607L1.53914 7.56857C2.03997 8.62191 2.65331 9.55107 3.34997 10.3494L1.50581 12.1952L2.68414 13.3727L4.53914 11.5169C5.28831 12.1369 6.10581 12.6227 6.97081 12.9644L6.25331 15.4336L7.85414 15.8986L8.57414 13.4194C9.04081 13.5019 9.51581 13.5477 9.99914 13.5477H10.0016C10.4633 13.5477 10.9175 13.5069 11.3633 13.4319L12.08 15.8986L13.68 15.4336L12.97 12.9869C13.8433 12.6494 14.67 12.1677 15.4266 11.5477L17.2508 13.3727L18.43 12.1952L16.62 10.3844C17.33 9.57857 17.9533 8.63774 18.4616 7.56857L18.8191 6.81607Z" fill="black"/>
</g>
<defs>
<clipPath id="clip0_102_239">
<rect width="20" height="20" fill="white" transform="translate(0 0.5)"/>
</clipPath>
</defs>
</svg>
